IKResults
version=1
nRows=6
nColumns=63
inDegrees=yes

Units are S.I. units (second, meters, Newtons, ...)
If the header above contains a line with 'inDegrees', this indicates whether rotational values are in degrees (yes) or radians (no).

endheader
time	pelvis_tilt	pelvis_list	pelvis_rotation	pelvis_tx	pelvis_ty	pelvis_tz	hip_flexion_r	hip_adduction_r	hip_rotation_r	knee_angle_r	knee_angle_r_beta	ankle_angle_r	subtalar_angle_r	mtp_angle_r	hip_flexion_l	hip_adduction_l	hip_rotation_l	knee_angle_l	knee_angle_l_beta	ankle_angle_l	subtalar_angle_l	mtp_angle_l	L5_S1_Flex_Ext	L5_S1_Lat_Bending	L5_S1_axial_rotation	L4_L5_Flex_Ext	L4_L5_Lat_Bending	L4_L5_axial_rotation	L3_L4_Flex_Ext	L3_L4_Lat_Bending	L3_L4_axial_rotation	L2_L3_Flex_Ext	L2_L3_Lat_Bending	L2_L3_axial_rotation	L1_L2_Flex_Ext	L1_L2_Lat_Bending	L1_L2_axial_rotation	L1_T12_Flex_Ext	L1_T12_Lat_Bending	L1_T12_axial_rotation	Abs_r3	Abs_r2	Abs_r1	Abs_t1	Abs_t2	neck_flexion	neck_bending	neck_rotation	arm_flex_r	arm_add_r	arm_rot_r	elbow_flex_r	pro_sup_r	wrist_flex_r	wrist_dev_r	arm_flex_l	arm_add_l	arm_rot_l	elbow_flex_l	pro_sup_l	wrist_flex_l	wrist_dev_l
      0.03333333	     10.90252147	     -5.43094495	    -39.91654583	     -0.94140599	      0.95296174	     -0.82302375	    -20.86868890	     -5.74320375	     -0.45537648	     59.78830664	      1.04350281	      0.00000000	      0.00000000	      0.00000000	     -6.63468498	     -8.26363289	    -12.84809268	     24.19745875	      0.42232533	     37.84636765	      1.21730515	      0.00000000	     -2.83407952	     -0.38522255	     -2.25224083	     -5.26316908	     -0.51234599	     -2.39300588	     -4.65610925	     -0.93663011	     -2.39300588	     -3.23906949	     -0.93663011	     -1.97071072	     -2.63172624	     -0.78554583	     -1.82994567	     -1.61939304	     -0.59670973	     -1.68918062	    -20.24354662	     -4.35771455	    -12.52628781	      0.00000000	      0.00000000	      5.74504848	     -0.16593734	     -0.51869541	      0.82013684	     -0.29920006	    -16.00579271	     25.26481159	     89.99559364	      0.00000000	      0.00000000	     -6.25456325	     -9.88388233	     -6.48038899	     39.03722178	     89.99559364	      0.00000000	      0.00000000
      0.06666667	     10.89721700	     -5.42827518	    -39.91810341	     -0.94137810	      0.95296800	     -0.82299946	    -20.86853391	     -5.74397641	     -0.45535851	     59.78830919	      1.04350285	      0.00000000	      0.00000000	      0.00000000	     -6.63389491	     -8.26401867	    -12.84786079	     24.19786402	      0.42233240	     37.84645554	      1.21693243	      0.00000000	     -2.83445097	     -0.38521592	     -2.25257943	     -5.26385889	     -0.51233718	     -2.39336565	     -4.65671949	     -0.93661400	     -2.39336565	     -3.23949401	     -0.93661400	     -1.97100700	     -2.63207117	     -0.78553231	     -1.83022079	     -1.61960528	     -0.59669947	     -1.68943457	    -20.24619981	     -4.35763958	    -12.52817103	      0.00000000	      0.00000000	      5.74430295	     -0.16588568	     -0.51854619	      0.81985010	     -0.30086858	    -16.00601003	     25.26590896	     89.99559364	      0.00000000	      0.00000000	     -6.25379517	     -9.88517450	     -6.48055756	     39.03777040	     89.99559364	      0.00000000	      0.00000000
      0.10000000	     10.87738659	     -5.42243380	    -39.93469002	     -0.94135388	      0.95297911	     -0.82296159	    -20.87267359	     -5.74964726	     -0.45532024	     59.78831562	      1.04350296	      0.00000000	      0.00000000	      0.00000000	     -6.62430151	     -8.26858429	    -12.84844242	     24.19747744	      0.42232565	     37.84922803	      1.21479794	      0.00000000	     -2.83507061	     -0.38515851	     -2.25508514	     -5.26500962	     -0.51226082	     -2.39602797	     -4.65773750	     -0.93647441	     -2.39602797	     -3.24020220	     -0.93647441	     -1.97319950	     -2.63264657	     -0.78541524	     -1.83225668	     -1.61995934	     -0.59661054	     -1.69131386	    -20.25062584	     -4.35699013	    -12.54210704	      0.00000000	      0.00000000	      5.74308975	     -0.16638200	     -0.51781546	      0.81695827	     -0.31604645	    -16.00748358	     25.26932426	     89.99559364	      0.00000000	      0.00000000	     -6.24821882	     -9.89708736	     -6.48321269	     39.03818425	     89.99559364	      0.00000000	      0.00000000
      0.13333333	     10.60594285	     -5.15974213	    -40.06023126	     -0.94082983	      0.95235871	     -0.82263766	    -20.57866060	     -5.93597736	     -0.44210318	     59.79185697	      1.04356477	      0.00000000	      0.00000000	      0.00000000	     -6.21971873	     -8.22371113	    -12.93953346	     24.33083568	      0.42465319	     37.95631642	      1.08211718	      0.00000000	     -2.76385945	     -0.38508115	     -2.26867078	     -5.13276339	     -0.51215792	     -2.41046270	     -4.54074469	     -0.93628630	     -2.41046270	     -3.15881497	     -0.93628630	     -1.98508693	     -2.56651989	     -0.78525747	     -1.84329501	     -1.57926929	     -0.59649069	     -1.70150308	    -19.74197168	     -4.35611494	    -12.61766626	      0.00000000	      0.00000000	      5.54177087	     -0.30654019	     -0.24053946	      0.61696531	     -0.66287752	    -14.41204928	     25.46330834	     89.99559364	      0.00000000	      0.00000000	     -6.49652546	     -9.88806847	     -6.42082347	     39.01681668	     89.99559364	      0.00000000	      0.00000000
      0.16666667	     10.56667841	     -5.14917082	    -40.09812445	     -0.94074613	      0.95235547	     -0.82253674	    -20.60202345	     -5.96587258	     -0.44195041	     59.79187809	      1.04356514	      0.00000000	      0.00000000	      0.00000000	     -6.19989520	     -8.23311504	    -12.95035636	     24.33757900	      0.42477089	     37.97012504	      1.06898704	      0.00000000	     -2.76429245	     -0.38486495	     -2.27371260	     -5.13356751	     -0.51187039	     -2.41581964	     -4.54145607	     -0.93576065	     -2.41581964	     -3.15930984	     -0.93576065	     -1.98949853	     -2.56692197	     -0.78481661	     -1.84739149	     -1.57951671	     -0.59615581	     -1.70528445	    -19.74506456	     -4.35366933	    -12.64570738	      0.00000000	      0.00000000	      5.55052113	     -0.31580404	     -0.23491851	      0.61142411	     -0.68050559	    -14.40530262	     25.47977156	     89.99559364	      0.00000000	      0.00000000	     -6.50001856	     -9.90911124	     -6.42608690	     39.00978971	     89.99559364	      0.00000000	      0.00000000
      0.20000000	     10.51862852	     -5.06471604	    -40.26666510	     -0.94049541	      0.95211968	     -0.82234847	    -20.56047252	     -6.15601347	     -0.43818401	     59.79216731	      1.04357019	      0.00000000	      0.00000000	      0.00000000	     -6.08166894	     -8.17860153	    -13.11139933	     24.52929091	      0.42811689	     38.07549034	      0.91546727	      0.00000000	     -2.75371868	     -0.38789325	     -2.27905094	     -5.11393095	     -0.51589803	     -2.42149163	     -4.52408441	     -0.94312365	     -2.42149163	     -3.14722507	     -0.94312365	     -1.99416958	     -2.55710316	     -0.79099192	     -1.85172889	     -1.57347485	     -0.60084665	     -1.70928821	    -19.66953713	     -4.38792605	    -12.67539764	      0.00000000	      0.00000000	      5.67633002	     -0.61334594	      0.03337805	      0.53460433	     -0.76427088	    -14.13163979	     25.76092068	     89.99559364	      0.00000000	      0.00000000	     -6.59701038	     -9.90134961	     -6.43989234	     38.99082006	     89.99559364	      0.00000000	      0.00000000
